<svg viewBox="0 0 2048 1261" xmlns="http://www.w3.org/2000/svg">
  <rect width="2048" height="1261" fill="#f6f8fa" />

  <g fill="none" stroke="#c4c9ce" stroke-width="1" stroke-linecap="butt" stroke-linejoin="miter" vector-effect="non-scaling-stroke">
    <g opacity="0.32">
      <line x1="1264.83" y1="0" x2="1264.83" y2="1261" />
      <line x1="1264.83" y1="779.341" x2="2044.17" y2="779.341" />
      <line x1="1562.511" y1="779.341" x2="1562.511" y2="1261" />
      <line x1="1264.83" y1="963.318" x2="1562.511" y2="963.318" />
      <line x1="1448.807" y1="779.341" x2="1448.807" y2="963.318" />
      <line x1="1448.807" y1="893.045" x2="1562.511" y2="893.045" />
      <line x1="1492.238" y1="893.045" x2="1492.238" y2="963.318" />
      <line x1="1448.807" y1="919.887" x2="1492.238" y2="919.887" />
    </g>

    <g opacity="0.42">
      <path d="M 3.83 1261 A 1261 1261 0 0 1 1264.83 0" />
      <path d="M 1264.83 0 A 779.341 779.341 0 0 1 2044.17 779.341" />
      <path d="M 2044.17 779.341 A 481.659 481.659 0 0 1 1562.511 1261" />
      <path d="M 1562.511 1261 A 297.682 297.682 0 0 1 1264.83 963.318" />
      <path d="M 1264.83 963.318 A 183.977 183.977 0 0 1 1448.807 779.341" />
      <path d="M 1448.807 779.341 A 113.704 113.704 0 0 1 1562.511 893.045" />
      <path d="M 1562.511 893.045 A 70.273 70.273 0 0 1 1492.238 963.318" />
      <path d="M 1492.238 963.318 A 43.431 43.431 0 0 1 1448.807 919.887" />
    </g>
  </g>
</svg>
